<svg width="253" height="125" viewBox="0 0 253 125" fill="none" xmlns="http://www.w3.org/2000/svg">
<g clip-path="url(#clip0_36_1345)">
<path d="M11.7339 71.8947C11.5346 71.6621 15.0739 68.7277 16.7602 73.7676C18.4417 78.8156 23.0811 95.8621 23.2113 96.0635C23.3416 96.2648 23.8063 88.0282 23.1297 82.8967C23.1297 82.8967 28.3697 99.4846 25.7598 101.451C23.1498 103.417 21.9732 102.755 20.9342 98.1071C19.8953 93.4591 14.3452 74.8937 11.7323 71.8883L11.7339 71.8947Z" fill="white"/>
<path d="M41.0064 96.4828C41.0064 96.4828 32.6882 92.6769 26.797 81.5524C20.9122 70.4264 18.9097 68.8272 19.5527 66.9496C20.1973 65.0784 19.4601 62.6014 16.3295 63.5638C13.1988 64.5263 17.2855 73.2244 20.6289 78.2228C23.9738 83.2277 36.025 99.8997 40.9984 96.4779L41.0064 96.4828Z" fill="white"/>
<path d="M70.5296 63.5123C70.5296 63.5123 70.5271 61.2217 57.7176 65.9268C44.9081 70.6319 21.2102 81.2161 24.1023 74.641C26.9879 68.0674 38.863 55.8442 60.9844 46.8347C83.0993 37.8268 92.7098 37.0483 93.7104 37.5745C94.7111 38.1006 91.7296 43.3909 81.7213 53.8535C71.7129 64.3162 67.9035 67.5205 75.5365 61.6556C83.1694 55.7907 101.387 38.7028 97.7156 35.6432C94.0445 32.5837 68.3403 40.2702 57.532 46.0276C46.7238 51.785 22.6392 63.5494 19.4476 77.9385C19.4476 77.9385 19.7634 82.8761 51.3887 70.3916C51.3887 70.3916 62.2737 65.3819 70.5296 63.5123Z" fill="white"/>
<path d="M37.4763 89.1081C37.4763 89.1081 38.3719 93.2433 45.4167 87.2048C52.4679 81.1647 64.33 68.4316 88.9538 59.4584C113.579 50.4916 129.981 48.434 130.373 56.2533C130.765 64.0725 117.084 81.3042 100.853 95.0777C85.7689 107.879 53.8434 118.541 52.076 103.5C49.9956 85.7857 68.8917 71.3871 68.8917 71.3871C68.8917 71.3871 61.5905 73.7049 54.9761 83.8191C48.0772 94.3708 43.3666 111.231 62.6307 112.447C81.8883 113.665 104.654 94.8575 109.965 89.8228C115.275 84.7881 130.663 69.4318 132.717 59.4463C134.771 49.4609 127.532 45.656 109.868 50.6837C92.2027 55.7113 70.4229 64.721 55.996 74.4782C40.4694 84.9778 37.4683 89.1031 37.4683 89.1031L37.4763 89.1081Z" fill="white"/>
<path d="M109.37 53.511C109.37 53.511 110.611 54.951 111.164 57.7455C111.72 60.5465 117.369 61.9417 120.639 59.366C123.909 56.7902 125.243 55.1711 126.278 53.7054C127.308 52.2413 132.286 44.3659 125.638 45.303C125.638 45.303 128.337 46.3316 126.248 49.103C124.159 51.8744 122.819 55.4921 118.636 57.5071C114.461 59.527 115.4 54.4664 115.4 54.4664C115.4 54.4664 119.17 48.7614 123.966 46.0525C128.757 43.3516 124.391 44.5759 124.02 44.5416C123.65 44.5072 117.266 47.7746 117.266 47.7746C117.266 47.7746 114.991 45.7759 111.043 49.745C107.096 53.7142 109.374 53.4965 109.374 53.4965L109.37 53.511Z" fill="white"/>
<path d="M175.785 34.3025C175.785 34.3025 149.748 45.5909 133.453 60.522C117.156 75.4466 116.923 84.7631 130.609 87.7611C144.294 90.7592 176.785 81.5144 185.053 78.3836C193.321 75.2528 214.06 67.3748 222.903 61.1994C231.746 55.024 246.5 46.433 244.83 34.3651C243.16 22.2971 214.7 22.5327 202.7 23.8019C190.7 25.0711 159.679 30.8996 148.767 33.5152C137.854 36.1309 125.521 39.5454 135.28 33.684C145.038 27.8226 161.886 19.0445 169.909 19.3374C177.931 19.6303 166.815 27.8075 151.954 36.2667C137.086 44.7274 124.037 50.2286 124.037 50.2286L115.515 51.355L113.012 54.9369C113.012 54.9369 117.376 53.0496 120.644 54.2565C123.912 55.4634 131.484 49.7431 135.981 47.4409C140.472 45.1403 161.804 33.9808 170.45 27.0114C179.102 20.0404 178.394 14.636 167.885 17.9074C155.467 21.7662 156.107 21.9001 137.951 29.5215C134.226 31.0845 120.716 38.7958 127.553 39.5576C135.029 40.3919 169.539 30.9914 180.158 29.1778C191.336 27.2713 210.562 21.972 230.66 26.7229C250.757 31.4739 239.032 46.9167 230.609 53.8464C218.298 63.9651 190.457 76.9309 162.986 82.8044C135.521 88.6763 122.816 86.2913 123.936 78.6775C124.842 72.51 127.761 62.1735 175.791 34.3009L175.785 34.3025Z" fill="white"/>
<path d="M185.739 66.7081C185.739 66.7081 181.685 68.0356 181.56 61.8692C181.442 55.7076 181.253 55.1444 183.268 54.716C185.275 54.2828 185.949 57.2947 185.411 59.8928C184.872 62.491 184.936 65.8952 185.739 66.7081Z" fill="white"/>
<path d="M210.512 55.0796C210.512 55.0796 203.446 55.6172 197.833 58.4196C192.219 61.222 194.163 64.2853 198.223 62.3546C202.283 60.4239 208.46 58.4917 210.512 55.0796Z" fill="white"/>
<path d="M204.501 66.2869C204.501 66.2869 201.943 59.6026 203.873 54.0035C205.797 48.4059 208.304 44.3853 204.124 46.2422C199.944 48.0991 194.741 51.5621 189.657 54.2924C184.579 57.0211 189.631 58.1764 191.502 57.174C193.373 56.1716 200.521 51.9892 200.521 51.9892C200.521 51.9892 199.332 58.7716 200.694 62.7743C202.057 66.7771 203.166 67.0172 204.503 66.2933L204.501 66.2869Z" fill="white"/>
<path d="M76.7567 63.1278C76.7567 63.1278 68.9398 62.0401 56.2454 70.5887C43.5494 79.1308 11.9893 90.519 10.125 91.3488C8.26063 92.1787 7.33016 95.3085 13.514 93.0602C19.6977 90.812 36.8221 82.2753 43.8771 78.9017C50.9386 75.5266 65.9221 68.2623 70.4284 66.3409C74.9347 64.4195 76.7552 63.1214 76.7552 63.1214L76.7567 63.1278Z" fill="white"/>
</g>
<path d="M119.768 116.063H117.531L116.655 113.608H111.775L110.914 116.063H108.74L112.979 104.927H115.45L119.768 116.063ZM112.838 110.605L112.416 111.809H116.014L115.576 110.605C115.2 109.682 114.747 108.415 114.199 106.788C113.761 108.086 113.308 109.353 112.838 110.605ZM131.328 110.198C131.938 110.417 132.407 110.777 132.751 111.246C133.096 111.731 133.268 112.278 133.268 112.873C133.268 113.889 132.923 114.671 132.267 115.234C131.61 115.798 130.64 116.063 129.388 116.063H124.18V104.927H129.216C130.374 104.927 131.265 105.192 131.891 105.724C132.501 106.256 132.814 106.96 132.814 107.805C132.814 108.9 132.313 109.697 131.328 110.198ZM129.06 106.663H126.291V109.572H129.06C129.592 109.572 129.998 109.447 130.28 109.181C130.562 108.915 130.718 108.54 130.718 108.071C130.718 107.633 130.562 107.288 130.28 107.038C129.983 106.788 129.576 106.663 129.06 106.663ZM126.291 114.312H129.279C129.873 114.312 130.327 114.186 130.64 113.921C130.953 113.655 131.109 113.279 131.109 112.779C131.109 111.746 130.499 111.23 129.279 111.23H126.291V114.312ZM150.708 109.04V104.927H152.679V116.063H150.771V114.937C150.176 115.813 149.316 116.251 148.221 116.251C147.095 116.251 146.219 115.876 145.578 115.094C144.921 114.327 144.592 113.311 144.592 112.028C144.592 110.745 144.921 109.713 145.578 108.946C146.203 108.196 147.095 107.805 148.221 107.805C149.3 107.805 150.129 108.227 150.708 109.04ZM147.157 113.983C147.517 114.421 148.018 114.624 148.675 114.624C149.316 114.624 149.832 114.405 150.208 113.952C150.567 113.514 150.755 112.873 150.755 112.028C150.755 111.199 150.567 110.558 150.208 110.104C149.832 109.666 149.332 109.431 148.675 109.431C148.033 109.431 147.533 109.666 147.157 110.135C146.782 110.605 146.61 111.261 146.61 112.09C146.61 112.935 146.782 113.561 147.157 113.983ZM165.485 112.169V112.638H159.447C159.51 113.326 159.729 113.858 160.088 114.202C160.448 114.546 160.933 114.718 161.543 114.718C162.435 114.718 163.045 114.343 163.389 113.561H165.282C165.063 114.39 164.625 115.047 163.968 115.532C163.295 116.017 162.482 116.251 161.527 116.251C160.323 116.251 159.353 115.876 158.618 115.094C157.867 114.327 157.508 113.311 157.508 112.028C157.508 110.761 157.867 109.744 158.602 108.962C159.338 108.196 160.307 107.805 161.496 107.805C162.716 107.805 163.686 108.211 164.406 109.009C165.125 109.822 165.485 110.87 165.485 112.169ZM161.481 109.338C160.323 109.338 159.65 109.979 159.463 111.261H163.514C163.42 110.667 163.201 110.198 162.857 109.854C162.497 109.51 162.044 109.338 161.481 109.338ZM183.006 110.683L184.977 104.927H187.167L183.178 116.063H180.707L176.625 104.927H178.877L180.895 110.683C181.364 112.106 181.708 113.264 181.958 114.155C182.224 113.123 182.568 111.965 183.006 110.683ZM193.268 106.944H191.329V105.099H193.268V106.944ZM193.284 116.063H191.313V107.992H193.284V116.063ZM200.441 116.063H198.47V104.927H200.441V116.063ZM207.597 116.063H205.627V104.927H207.597V116.063ZM214.738 106.944H212.799V105.099H214.738V106.944ZM214.754 116.063H212.783V107.992H214.754V116.063ZM227.557 112.169V112.638H221.52C221.582 113.326 221.801 113.858 222.161 114.202C222.521 114.546 223.006 114.718 223.616 114.718C224.507 114.718 225.117 114.343 225.461 113.561H227.354C227.135 114.39 226.697 115.047 226.04 115.532C225.368 116.017 224.554 116.251 223.6 116.251C222.396 116.251 221.426 115.876 220.691 115.094C219.94 114.327 219.58 113.311 219.58 112.028C219.58 110.761 219.94 109.744 220.675 108.962C221.41 108.196 222.38 107.805 223.569 107.805C224.789 107.805 225.759 108.211 226.478 109.009C227.198 109.822 227.557 110.87 227.557 112.169ZM223.553 109.338C222.396 109.338 221.723 109.979 221.535 111.261H225.587C225.493 110.667 225.274 110.198 224.93 109.854C224.57 109.51 224.116 109.338 223.553 109.338ZM236.745 107.867C236.917 107.867 237.073 107.883 237.23 107.899V109.713H236.729C235.978 109.713 235.4 109.916 234.993 110.292C234.586 110.667 234.398 111.23 234.398 111.965V116.063H232.428V107.992H234.336V109.431C234.774 108.399 235.587 107.867 236.745 107.867ZM244.898 116.282C242.536 116.282 241.3 115.36 241.207 113.498H243.131C243.177 113.999 243.334 114.359 243.615 114.562C243.897 114.781 244.335 114.875 244.929 114.875C245.993 114.875 246.525 114.562 246.525 113.905C246.525 113.623 246.4 113.389 246.181 113.232C245.946 113.076 245.539 112.951 244.945 112.841L244.022 112.685C242.255 112.403 241.379 111.59 241.379 110.245C241.379 109.494 241.66 108.9 242.255 108.462C242.833 108.024 243.662 107.805 244.726 107.805C247.025 107.805 248.214 108.728 248.292 110.542H246.431C246.4 110.073 246.259 109.729 245.977 109.525C245.696 109.322 245.273 109.212 244.726 109.212C243.788 109.212 243.318 109.525 243.318 110.151C243.318 110.432 243.412 110.636 243.631 110.792C243.834 110.949 244.179 111.058 244.663 111.136L245.68 111.293C246.65 111.48 247.369 111.762 247.807 112.137C248.245 112.528 248.48 113.06 248.48 113.749C248.48 114.562 248.167 115.188 247.542 115.626C246.916 116.063 246.024 116.282 244.898 116.282Z" fill="white"/>
<defs>
<clipPath id="clip0_36_1345">
<rect width="243.33" height="70.2145" fill="white" transform="translate(0 56.7197) rotate(-13.4795)"/>
</clipPath>
</defs>
</svg>
