<svg width="64" height="64" viewBox="0 0 64 64" fill="none" xmlns="http://www.w3.org/2000/svg">
<rect width="64" height="64" rx="32" fill="#E8E8E8"/>
<path d="M37.9743 24.5748C35.0453 24.5731 32.6698 22.1599 32.668 19.1843V13.1115C32.2978 13.0366 31.9208 12.9983 31.5437 13.0001H19.0806C15.7215 13.0053 13.0018 15.7719 13 19.1843V45.8157C13.0017 49.2282 15.7216 51.9947 19.0806 52H36.8228C40.1819 51.9948 42.9016 49.2282 42.9034 45.8157V25.1877C42.9051 24.9822 42.8948 24.7785 42.8691 24.5748H37.9743ZM33.4358 27.6252H38.9202C39.2955 27.6304 39.5955 27.9403 39.5955 28.3216C39.5955 28.7029 39.2956 29.0128 38.9202 29.018H33.4358C33.0605 29.0128 32.7606 28.7029 32.7606 28.3216C32.7606 27.9403 33.0605 27.6304 33.4358 27.6252ZM33.4358 31.8037H38.9202C39.2955 31.809 39.5955 32.1189 39.5955 32.5002C39.5955 32.8815 39.2956 33.1914 38.9202 33.1966H33.4358C33.0605 33.1914 32.7606 32.8815 32.7606 32.5002C32.7606 32.1189 33.0605 31.8089 33.4358 31.8037ZM16.2974 30.1811C16.2974 28.6368 17.2692 27.2648 18.7105 26.7756L21.0208 25.9956C19.6309 24.9196 19.0722 23.0636 19.6309 21.3815C20.1896 19.6997 21.7423 18.568 23.4888 18.568C25.2352 18.568 26.788 19.6997 27.3467 21.3815C27.9054 23.0634 27.3467 24.9194 25.9567 25.9956L28.2602 26.7756C29.7033 27.2631 30.6767 28.635 30.6733 30.1811V31.6714C30.675 32.5106 30.0049 33.1932 29.1788 33.1966H17.7986C17.4009 33.1966 17.0188 33.0365 16.7377 32.7492C16.4549 32.4636 16.2972 32.0754 16.2972 31.6714L16.2974 30.1811ZM38.9202 45.0358H16.9827C16.6091 45.0306 16.3075 44.7207 16.3075 44.3394C16.3075 43.9581 16.6091 43.6482 16.9827 43.643H38.9202C39.2938 43.6482 39.5955 43.9581 39.5955 44.3394C39.5955 44.7207 39.2939 45.0306 38.9202 45.0358ZM39.6058 40.8572C39.604 41.242 39.299 41.5519 38.9202 41.5537H16.9827C16.604 41.5519 16.2989 41.242 16.2972 40.8572V35.982C16.2989 35.5973 16.604 35.2873 16.9827 35.2856H38.9202C39.299 35.2873 39.604 35.5973 39.6058 35.982V40.8572Z" fill="#151419"/>
<path d="M37.9739 23.182H42.5671C42.31 22.4037 41.8987 21.6847 41.3606 21.0718L36.082 15.0685C35.5147 14.4208 34.8189 13.902 34.0391 13.5503V19.1846C34.0391 21.3922 35.8006 23.182 37.9739 23.182Z" fill="#151419"/>
<path d="M17.668 36.6785H38.2343V40.1606H17.668V36.6785Z" fill="#151419"/>
<path d="M26.1892 22.7081C26.1755 21.2021 24.9706 19.9885 23.4881 19.9885C22.0056 19.9885 20.8008 21.2021 20.7871 22.7081C20.8008 24.2141 22.0056 25.4277 23.4881 25.4277C24.9706 25.4277 26.1755 24.2141 26.1892 22.7081Z" fill="#151419"/>
<path d="M17.7981 31.8038H29.1784C29.2127 31.8038 29.2453 31.7899 29.2675 31.7638C29.2915 31.7394 29.3035 31.7063 29.3018 31.6715V30.1811C29.3052 29.2357 28.7105 28.3966 27.8279 28.0988C26.9401 27.8498 24.4002 26.7738 23.4884 26.8452C22.5526 26.7704 20.0555 27.8551 19.142 28.0988C18.2611 28.4 17.6681 29.2375 17.6681 30.1811V31.6715C17.6664 31.7063 17.6801 31.7412 17.7058 31.7655C17.7298 31.7917 17.7639 31.8056 17.7981 31.8038Z" fill="#151419"/>
<path d="M49.9848 17.8752H46.7559C46 17.877 45.3865 18.5003 45.3848 19.2681V22.7502H51.3557V19.2681C51.3557 18.899 51.2117 18.5438 50.9547 18.2827C50.6976 18.0215 50.3481 17.8752 49.9848 17.8752Z" fill="#151419"/>
<path d="M45.3848 24.1431H51.3557V43.6011H45.3848V24.1431Z" fill="#151419"/>
<path d="M47.7217 51.5265C47.8194 51.8051 48.0782 51.9897 48.3696 51.9897C48.661 51.9897 48.9197 51.8051 49.0175 51.5265L51.1632 44.9941H45.5762L47.7217 51.5265Z" fill="#151419"/>
</svg>
