<svg width="60" height="61" viewBox="0 0 60 61" fill="none" xmlns="http://www.w3.org/2000/svg">
<rect y="0.5" width="60" height="60" rx="30" fill="white"/>
<path fill-rule="evenodd" clip-rule="evenodd" d="M19.0224 14.5H37.0797C37.6341 14.5 38.1398 14.7279 38.5061 15.0934C38.8742 15.4619 39.1017 15.9667 39.1017 16.5224V29.7139C38.9256 29.6445 38.7379 29.6072 38.5494 29.6072C38.321 29.6072 38.0836 29.6634 37.8561 29.7782L37.5797 29.9204L37.3244 29.8772C37.0844 29.8309 36.832 29.845 36.5921 29.9179C36.3586 29.989 36.1392 30.1163 35.9592 30.2971L35.7377 30.5203L35.5042 30.5567C35.2574 30.5837 35.0166 30.672 34.8092 30.8117C34.607 30.9496 34.4339 31.1437 34.3126 31.3807L34.1729 31.6571L33.897 31.7963C33.681 31.906 33.4929 32.065 33.355 32.2616C33.2166 32.451 33.1219 32.6751 33.0842 32.9134L33.0327 33.2257L32.8099 33.4434C32.6445 33.6083 32.5164 33.8174 32.441 34.0527C32.3703 34.2695 32.348 34.5082 32.3866 34.7541L32.4367 35.0635L32.2949 35.3398C32.1831 35.5562 32.1235 35.7957 32.1235 36.034C32.1235 36.2649 32.1788 36.5031 32.2949 36.7281L32.4372 37.0045L32.3939 37.2598C32.3472 37.5006 32.3613 37.753 32.4346 37.9917C32.5066 38.2286 32.6321 38.4476 32.8138 38.625L33.037 38.8465L33.0734 39.0804C33.1004 39.3311 33.1883 39.5697 33.328 39.7746L33.3322 39.7788C33.4724 39.9815 33.6626 40.1533 33.8965 40.2716L34.1738 40.4117L34.3152 40.6859C34.4206 40.8955 34.5705 41.0776 34.7531 41.2155L34.7518 43.4873H19.0224C18.4667 43.4873 17.9619 43.2598 17.5956 42.8943C17.2279 42.5262 17 42.0202 17 41.4649V16.5224C17 15.968 17.2275 15.4628 17.5934 15.0956L17.5969 15.0922C17.9636 14.7271 18.4684 14.5 19.0224 14.5ZM39.0413 33.6388L39.5867 34.8351L40.8927 34.9842C41.1892 35.0163 41.4039 35.2845 41.3713 35.5815C41.355 35.7306 41.2796 35.8587 41.1708 35.9453L40.2286 36.8078L40.4908 38.0975C40.5499 38.3897 40.3614 38.6759 40.0692 38.7351C39.9359 38.7621 39.804 38.7376 39.6947 38.6755L38.5498 38.0285L37.4062 38.6759C37.1465 38.8233 36.8166 38.7321 36.6692 38.4724C36.5998 38.3503 36.5831 38.2123 36.6122 38.0851L36.8719 36.8078L35.9031 35.9204C35.6829 35.7195 35.6679 35.3775 35.8688 35.1577C35.9609 35.057 36.0822 34.9992 36.2078 34.9859L37.5133 34.8351L38.0583 33.6388C38.1822 33.3675 38.5031 33.248 38.7743 33.3718C38.8973 33.428 38.9894 33.5248 39.0413 33.6388ZM41.3756 40.5612V46.6079C41.3756 46.907 41.1327 47.1499 40.8332 47.1499C40.6686 47.1499 40.5208 47.0762 40.421 46.9601L38.5742 45.0898L36.6465 46.9935C36.434 47.2026 36.0908 47.1996 35.8817 46.9871C35.7784 46.8821 35.7266 46.745 35.7266 46.6079L35.7249 40.5608L35.5826 40.539C35.4039 40.5115 35.2591 40.3988 35.1828 40.2485L34.8983 39.6867L34.3353 39.4026C34.1639 39.3161 34.0585 39.1507 34.0405 38.9724L33.9493 38.3799L33.5006 37.9347C33.3678 37.8031 33.3181 37.6185 33.3511 37.4471L33.4492 36.8429L33.1604 36.282C33.0773 36.1209 33.0837 35.9371 33.1604 35.7867L33.4492 35.2258L33.3481 34.602C33.3198 34.4242 33.3819 34.2528 33.5011 34.1345L33.9475 33.691L34.0431 33.0685C34.0718 32.8774 34.1978 32.7244 34.3636 32.6524L34.8988 32.3825L35.182 31.8195C35.269 31.6485 35.4339 31.5427 35.6122 31.5251L36.2043 31.4334L36.6499 30.9848C36.7819 30.852 36.9662 30.8023 37.1375 30.8352L37.7413 30.9334L38.3021 30.645C38.4727 30.5572 38.6685 30.5692 38.8232 30.6596L39.3571 30.9334L39.9826 30.8322C40.1609 30.804 40.3318 30.8665 40.4501 30.9852L40.8936 31.4317L41.5161 31.5277C41.7072 31.5559 41.8602 31.6819 41.9326 31.8473L42.2026 32.3825L42.7647 32.6666C42.9361 32.7527 43.0415 32.9185 43.0595 33.0963L43.1512 33.6893L43.5998 34.1341C43.7322 34.2661 43.7819 34.4503 43.7489 34.6213L43.6512 35.2258L43.94 35.7867C44.0232 35.9483 44.0167 36.1321 43.94 36.282L43.6512 36.8433L43.7519 37.4668C43.7802 37.645 43.7181 37.816 43.5994 37.9342L43.1508 38.3803L43.0548 39.002C43.0274 39.1811 42.9147 39.3259 42.7643 39.4018L42.2021 39.6871L41.9185 40.2489C41.8319 40.4203 41.6665 40.5257 41.4883 40.5437L41.3756 40.5612ZM39.0233 31.9763L38.5511 31.7338L38.0789 31.9763C37.9799 32.0268 37.8642 32.0478 37.7464 32.0294L37.2215 31.9441L36.847 32.3212C36.7682 32.4 36.6649 32.4553 36.5462 32.4737L36.0235 32.5543L35.7844 33.029C35.7339 33.1289 35.6524 33.2137 35.5453 33.2681L35.0723 33.5064L34.9922 34.0287C34.9742 34.1392 34.9228 34.2464 34.8375 34.3316L34.46 34.7061L34.5418 35.2126C34.5645 35.3278 34.5495 35.4508 34.4921 35.5631L34.2496 36.0344L34.4921 36.5057C34.5423 36.6047 34.5637 36.7199 34.5448 36.8378L34.46 37.3631L34.8371 37.7372C34.9155 37.816 34.9712 37.9197 34.9896 38.0384L35.0701 38.5615L35.5449 38.8011C35.6447 38.8512 35.7296 38.933 35.784 39.0401L36.0231 39.514L36.524 39.5916C36.6422 39.6045 36.7571 39.6567 36.847 39.7471L37.222 40.1246L37.7284 40.0428C37.8437 40.0201 37.9666 40.0351 38.0789 40.0929L38.5511 40.3354L39.0031 40.1032C39.106 40.0449 39.2281 40.0201 39.3536 40.0398L39.8789 40.1246L40.2487 39.7518C40.328 39.6713 40.433 39.6134 40.5538 39.5955L41.077 39.514L41.316 39.0406C41.3666 38.9407 41.448 38.8555 41.5556 38.8015L42.0299 38.562L42.107 38.0606C42.1203 37.9424 42.1726 37.8276 42.263 37.7376L42.6405 37.3631L42.5586 36.8558C42.5359 36.7409 42.5509 36.618 42.6083 36.5057L42.8509 36.0344L42.6083 35.5631C42.5582 35.4641 42.5368 35.3488 42.5556 35.231L42.6405 34.7061L42.2634 34.332C42.185 34.2528 42.1293 34.1495 42.1109 34.0308L42.0299 33.5077L41.556 33.2681C41.4557 33.2176 41.3709 33.1362 41.3165 33.029L41.0782 32.5564L40.5555 32.4763C40.445 32.4583 40.3378 32.4073 40.253 32.3216L39.8789 31.9441L39.3536 32.0294C39.2444 32.0457 39.1291 32.0303 39.0233 31.9763ZM21.1374 20.4965C20.8383 20.4965 20.5949 20.2536 20.5949 19.9541C20.5949 19.6546 20.8383 19.4116 21.1374 19.4116H34.9639C35.2634 19.4116 35.5063 19.6546 35.5063 19.9541C35.5063 20.2536 35.2634 20.4965 34.9639 20.4965H21.1374ZM21.1374 38.5757C20.8383 38.5757 20.5949 38.3327 20.5949 38.0337C20.5949 37.7341 20.8383 37.4912 21.1374 37.4912H29.1199C29.419 37.4912 29.6623 37.7341 29.6623 38.0337C29.6623 38.3327 29.419 38.5757 29.1199 38.5757H21.1374ZM21.1374 34.0561C20.8383 34.0561 20.5949 33.8132 20.5949 33.5137C20.5949 33.2141 20.8383 32.9712 21.1374 32.9712H29.1199C29.419 32.9712 29.6623 33.2141 29.6623 33.5137C29.6623 33.8132 29.419 34.0561 29.1199 34.0561H21.1374ZM21.1374 29.5361C20.8383 29.5361 20.5949 29.2932 20.5949 28.9937C20.5949 28.6946 20.8383 28.4516 21.1374 28.4516H31.971C32.2701 28.4516 32.513 28.6946 32.513 28.9937C32.513 29.2932 32.2701 29.5361 31.971 29.5361H21.1374ZM21.1374 25.0161C20.8383 25.0161 20.5949 24.7732 20.5949 24.4741C20.5949 24.1746 20.8383 23.9316 21.1374 23.9316H34.9639C35.2634 23.9316 35.5063 24.1746 35.5063 24.4741C35.5063 24.7732 35.2634 25.0161 34.9639 25.0161H21.1374Z" fill="#151419"/>
</svg>
