<svg width="60" height="61" viewBox="0 0 60 61" fill="none" xmlns="http://www.w3.org/2000/svg">
<rect y="0.5" width="60" height="60" rx="30" fill="white"/>
<path fill-rule="evenodd" clip-rule="evenodd" d="M11.6224 24.695C11.253 24.5887 11 24.2497 11 23.8668C11 23.4822 11.253 23.1448 11.6224 23.0369L28.9898 16.772C29.953 16.4093 31.0157 16.4093 31.9788 16.772L49.3462 23.0369C49.7157 23.1448 49.9687 23.4821 49.9687 23.8668C49.9687 24.2497 49.7157 24.5887 49.3462 24.695L31.9788 30.9616C31.0157 31.3242 29.953 31.3242 28.9898 30.9616L14.2609 25.6498V36.4893C14.8276 36.6344 15.2712 37.0747 15.4231 37.6397C15.5749 38.2048 15.4112 38.807 14.9946 39.2186L16.0792 43.4895V43.4878C16.1433 43.7307 16.0876 43.9888 15.9325 44.1845C15.7823 44.3852 15.5445 44.5033 15.2931 44.4999H12.4222C12.1709 44.5033 11.9331 44.3852 11.7829 44.1845C11.626 43.9888 11.5721 43.7307 11.6362 43.4878L12.7208 39.2169L12.7191 39.2186C12.407 38.9132 12.2333 38.4966 12.235 38.0614C12.235 37.3192 12.736 36.6732 13.4528 36.4893V25.3565L11.6224 24.695ZM42.4454 28.0467L32.2553 31.7256C31.1133 32.1523 29.8549 32.1523 28.713 31.7256L18.5229 28.0467V33.7294C18.5144 34.3519 18.8704 34.9237 19.4338 35.1885C25.4793 38.1083 35.5022 38.1083 41.5343 35.1885C42.0977 34.9237 42.4537 34.3519 42.4452 33.7294L42.4454 28.0467Z" fill="#151419"/>
</svg>
