<svg width="16" height="16" viewBox="0 0 16 16" fill="none" xmlns="http://www.w3.org/2000/svg">
<path d="M14.125 4.84375H13.5V2.5C13.5 1.12146 12.3785 0 11 0H5C3.62146 0 2.5 1.12146 2.5 2.5V4.84375H1.875C0.841064 4.84375 0 5.68481 0 6.71875V10.375C0 11.4089 0.841064 12.25 1.875 12.25H7.375V14.75H4.25V16H11.75V14.75H8.625V12.25H14.125C15.1589 12.25 16 11.4089 16 10.375V6.71875C16 5.68481 15.1589 4.84375 14.125 4.84375ZM12.25 11H3.75V10.3125C3.75 9.9679 4.0304 9.6875 4.375 9.6875H11.625C11.9696 9.6875 12.25 9.9679 12.25 10.3125V11ZM5 1.25H11C11.6892 1.25 12.25 1.81079 12.25 2.5V8.54504C12.0543 8.47559 11.8441 8.4375 11.625 8.4375H4.375C4.15588 8.4375 3.94568 8.47559 3.75 8.54504V2.5C3.75 1.81079 4.31079 1.25 5 1.25ZM1.25 10.375V6.71875C1.25 6.37415 1.5304 6.09375 1.875 6.09375H2.5V11H1.875C1.5304 11 1.25 10.7196 1.25 10.375ZM14.75 10.375C14.75 10.7196 14.4696 11 14.125 11H13.5V6.09375H14.125C14.4696 6.09375 14.75 6.37415 14.75 6.71875V10.375Z" fill="black"/>
</svg>
