<svg width="20" height="20" viewBox="0 0 20 20" fill="none" xmlns="http://www.w3.org/2000/svg">
<g clip-path="url(#clip0_362_698)">
<path d="M14.456 9.7175V12.8312C14.456 13.2041 13.5773 13.7461 12.2789 13.9306C10.3433 14.2074 8.41165 14.1881 6.2504 13.9306C4.94415 13.773 4.10498 13.3924 4.10498 13.0195V9.62524L10.3591 11.0668L14.456 9.7175Z" fill="black"/>
<path d="M8.835 5.86963L0 8.21835L4.10479 9.16398L10.3313 10.594L14.4558 9.24086L19 7.74168L8.835 5.86963Z" fill="black"/>
<path d="M0.0193207 12.8312L0.015625 12.8274L0.0193207 12.8312Z" fill="black"/>
<path d="M17.9154 9.39086V7.95703L17.2939 8.15692V9.38702C17.0248 9.50234 16.8506 9.76374 16.8506 10.0482V10.5595C16.8506 10.9631 17.187 11.286 17.5987 11.2898C18.0143 11.2898 18.3468 10.9631 18.3508 10.5633V10.052C18.3508 9.76758 18.1806 9.50618 17.9114 9.39086H17.9154Z" fill="black"/>
</g>
<defs>
<clipPath id="clip0_362_698">
<rect width="19" height="8.26087" fill="white" transform="translate(0 5.86963)"/>
</clipPath>
</defs>
</svg>
