<svg width="80" height="80" viewBox="0 0 80 80" fill="none" xmlns="http://www.w3.org/2000/svg">
<rect width="80" height="80" rx="40" fill="#F7F6F6"/>
<path d="M58.1955 19.921V27.8617C58.1955 28.1524 57.959 28.3863 57.6684 28.3863C57.3802 28.3863 57.1438 28.1524 57.1438 27.8617V21.0963L50.9889 22.9558L40.9082 25.8005C40.8048 25.8251 40.6989 25.8399 40.593 25.8399C40.4871 25.8399 40.3812 25.8251 40.2777 25.8005L30.1971 22.9558L23.8528 21.0446C23.3602 20.8968 23.0253 20.4437 23.0253 19.9314C23.0253 19.4191 23.3602 18.9659 23.8528 18.8181L40.2733 14.0499H40.2708C40.4851 13.9834 40.7142 13.9834 40.9285 14.0499L51.0041 16.8946L57.4007 18.8058C57.8809 18.9659 58.2011 19.4166 58.1962 19.9215L58.1955 19.921ZM39.0631 55.4587L37.0017 53.6928H36.9992C36.0657 52.8973 34.6668 53.0056 33.8663 53.9366L27.8444 60.9706C27.0489 61.9041 27.1573 63.303 28.0882 64.1035L30.1571 65.8695C30.2507 65.9532 30.3713 66 30.497 66H30.5364C30.6743 65.9951 30.8048 65.9286 30.891 65.8227L39.1224 56.2023C39.216 56.0939 39.2603 55.956 39.2455 55.8131C39.2381 55.6752 39.1715 55.5449 39.0631 55.4587ZM27.0487 60.2861L33.0977 53.252C33.4696 52.826 33.945 52.5033 34.477 52.3136V46.0602C34.5016 45.3829 34.2553 44.7253 33.7923 44.2327C33.3268 43.7377 32.6864 43.452 32.0091 43.4347C30.4132 43.3633 28.6793 44.5653 28.4231 47.0528C28.263 48.4272 28.3369 49.8162 28.6447 51.1635C28.7925 51.7767 28.5265 52.4122 27.9896 52.7397C27.5118 53.0599 26.8813 53.0156 26.4527 52.6363C25.8838 52.124 25.4355 51.4935 25.1375 50.7891C23.7903 47.8533 24.4479 42.9077 24.9602 40.2406V40.243C25.3025 38.5091 24.172 36.8269 22.4381 36.4846C20.7042 36.1447 19.022 37.2728 18.6821 39.0067C17.6379 44.2601 16.4162 56.5898 26.4577 61.3382C26.5882 60.954 26.7901 60.5989 27.0487 60.2861ZM25.9995 40.4198C25.5413 42.6315 25.3517 44.8925 25.433 47.1511L27.0289 43.538C27.5929 42.1957 27.2013 40.6415 26.0709 39.7228C26.0659 39.9568 26.0413 40.1882 25.9995 40.4198ZM40.0877 55.8132C40.0729 55.956 40.1173 56.094 40.2109 56.2023L48.4422 65.8177C48.5284 65.9236 48.659 65.9876 48.7969 65.995H48.8609C48.989 65.995 49.1097 65.9482 49.2033 65.862L51.2721 64.0961C52.1908 63.2907 52.2869 61.8942 51.4889 60.9706L45.467 53.9366C44.6665 53.0056 43.2675 52.8972 42.3341 53.6928L40.2726 55.4587H40.2701C40.1617 55.5449 40.0951 55.6753 40.0877 55.8132ZM52.8683 61.2908C62.9098 56.5693 61.6879 44.2474 60.6437 38.9592V38.9617C60.3039 37.2278 58.6217 36.0973 56.8878 36.4396C55.1539 36.7795 54.0258 38.4617 54.3657 40.1956C54.878 42.8753 55.5356 47.8084 54.1884 50.7441C53.8928 51.4485 53.4446 52.079 52.8757 52.5889C52.4471 52.9682 51.8141 53.0125 51.3388 52.6948C50.7994 52.3672 50.5359 51.7293 50.6812 51.1185C50.9989 49.7688 51.0826 48.3772 50.9299 47.0005C50.6738 44.5104 48.9596 43.3085 47.3439 43.3824V43.3799C46.6666 43.3972 46.0262 43.6853 45.5607 44.1779C45.0977 44.673 44.8514 45.3306 44.876 46.0079V52.2613C45.408 52.4485 45.8834 52.7736 46.2553 53.1997L52.2723 60.2337H52.2698C52.5333 60.5465 52.7377 60.9041 52.8683 61.2908ZM53.2623 39.7228C52.1318 40.6414 51.7402 42.1956 52.3043 43.5379L53.9002 47.1511C53.9815 44.8926 53.7918 42.6315 53.3337 40.4197C53.2919 40.1882 53.2672 39.9568 53.2623 39.7228ZM51.292 23.9599L41.1911 26.8095C40.9966 26.8637 40.7946 26.8908 40.5926 26.8883C40.3882 26.8908 40.1838 26.8613 39.9892 26.8046L29.9136 23.9673L27.5615 23.258V31.797V31.7946C27.5664 32.898 28.1575 33.9176 29.1131 34.4693C32.6105 36.4569 36.5683 37.5012 40.5929 37.4963C44.6173 37.5012 48.5701 36.4545 52.0676 34.4619C53.0257 33.9176 53.6168 32.898 53.6168 31.7946V23.2555L51.292 23.9599Z" fill="black"/>
</svg>
