<svg width="14" height="13" viewBox="0 0 14 13" fill="none" xmlns="http://www.w3.org/2000/svg">
<path d="M1.01953 5.77968C1.32134 5.93295 1.61186 6.11381 1.91648 6.26708C3.16319 6.89548 4.49169 7.3369 5.82301 7.71088C5.87096 8.03888 5.6707 8.82669 6.12482 8.87267L9.14286 8.85734C9.46441 8.75005 9.31491 7.98677 9.3544 7.71088C10.9593 7.24494 12.5473 6.65945 13.9999 5.77661V11.8369C13.9999 12.1343 13.4922 12.5787 13.2045 12.5328H1.76417C1.49339 12.5512 1.01953 12.1189 1.01953 11.8369V5.77661V5.77968Z" fill="black"/>
<path d="M10.6292 2.42917H13.306C13.5626 2.42917 13.9519 2.8246 13.9857 3.10969L13.9914 5.14818C12.5613 6.09846 10.9451 6.66249 9.34867 7.19587V6.44485C9.34867 6.35595 9.23867 6.17509 9.15969 6.14137L6.07396 6.12298C5.95831 6.13524 5.82574 6.33449 5.82574 6.44791V7.19894C4.18415 6.66862 2.51436 6.11685 1.04483 5.14512L1.01944 5.05928C1.07585 4.4646 0.946105 3.71051 1.0279 3.13421C1.07021 2.83993 1.43689 2.43223 1.71331 2.43223H4.44083V1.36854C4.44083 0.893399 4.94007 0.531681 5.3406 0.501027C6.78475 0.390673 8.34736 0.583793 9.80279 0.507158C10.1638 0.507158 10.6292 0.97923 10.6292 1.36854V2.43223V2.42917ZM9.97484 2.42917V1.42065C9.97484 1.36547 9.85638 1.22753 9.79151 1.2214L5.33778 1.20607C5.25034 1.19381 5.08957 1.33788 5.08957 1.42065V2.42917H9.97202H9.97484Z" fill="black"/>
<path d="M6.60157 6.55218C7.21364 6.58284 7.89622 6.48781 8.50265 6.54299C8.66907 6.55831 8.83266 6.60736 8.85522 6.81274C8.88625 7.09476 8.88625 7.89176 8.85522 8.17685C8.83266 8.38223 8.66907 8.43128 8.50265 8.4466C8.03161 8.48952 7.14312 8.48952 6.67208 8.4466C6.50567 8.43128 6.34207 8.38223 6.31951 8.17685C6.27438 7.75076 6.35335 7.22657 6.31951 6.78822C6.34771 6.63495 6.469 6.57364 6.59875 6.55218H6.60157Z" fill="black"/>
</svg>
