<svg width="64" height="64" viewBox="0 0 64 64" fill="none" xmlns="http://www.w3.org/2000/svg">
<rect width="64" height="64" rx="32" fill="#FDD900"/>
<path fill-rule="evenodd" clip-rule="evenodd" d="M13.2423 16.9351V24.2329C13.2423 25.8552 14.5647 27.1696 16.1854 27.1696H18.9807C19.199 27.1696 19.3922 27.2764 19.51 27.4413L20.8669 29.1892C21.0475 29.4216 21.3945 29.4216 21.5735 29.1892L22.9446 27.4225C23.0843 27.2419 23.3011 27.1555 23.5131 27.1728L26.2551 27.1696C27.8758 27.1696 29.1981 25.8568 29.1981 24.2329L29.2012 16.9352C29.2012 15.3129 27.8789 14 26.2582 14H16.1852C14.5646 14 13.2423 15.3129 13.2423 16.9351ZM26.1183 42.9576H22.8361V41.428C22.8361 39.7445 21.4603 38.3688 19.7768 38.3688H16.3014C14.6179 38.3688 13.2422 39.7445 13.2422 41.428V50.4629C13.2422 50.7582 13.4825 51 13.7793 51H22.3004C22.5972 51 22.8375 50.7597 22.8375 50.4629V47.8246C22.8375 47.666 22.7071 47.5356 22.5485 47.5356H18.9302C18.6899 47.5356 18.4873 47.3786 18.4182 47.1603L16.7206 42.986C16.6091 42.7127 16.7394 42.4002 17.0127 42.2887C17.2859 42.1756 17.5984 42.3075 17.71 42.5808L19.0935 45.9855C19.2129 46.2808 19.4846 46.4629 19.8034 46.4629L26.1213 46.4614C27.1091 46.4614 27.8064 45.673 27.8064 44.7056C27.8064 43.7398 27.1013 42.9577 26.1198 42.9577L26.1183 42.9576ZM18.0382 30.0109C15.9433 30.0109 14.244 31.7101 14.244 33.8051C14.244 35.9001 15.9433 37.5993 18.0382 37.5993C20.1332 37.5993 21.8324 35.9001 21.8324 33.8051C21.8324 31.7101 20.1332 30.0109 18.0382 30.0109ZM48.1265 31.1228C46.644 29.6418 44.2427 29.6418 42.7601 31.1228C41.2792 32.6037 41.2792 35.0065 42.7601 36.4875C44.2426 37.9685 46.6438 37.9685 48.1265 36.4875C49.6074 35.0066 49.6074 32.6038 48.1265 31.1228ZM35.5894 39.03C34.9895 38.3971 34.9377 37.6543 35.1968 37.0308C35.6836 35.8687 37.2321 35.2593 38.3361 36.3178L40.4735 38.3688H47.3773C48.954 38.3688 50.2402 39.6566 50.2402 41.2318V50.4219C50.2402 50.7407 49.9811 50.9998 49.6623 50.9998H41.2244C40.9056 50.9998 40.6464 50.7407 40.6464 50.4219V42.4033L39.0258 42.4002C38.8734 42.4002 38.7211 42.3405 38.608 42.2211L35.5912 39.0315L35.5894 39.03ZM38.6518 47.617C38.9706 47.617 39.2297 47.8762 39.2297 48.195V50.4203C39.2297 50.7391 38.9706 50.9982 38.6518 50.9982H24.8287C24.5099 50.9982 24.2507 50.7391 24.2507 50.4203V48.195C24.2507 47.8762 24.5099 47.617 24.8287 47.617H38.6518ZM39.9663 27.1716L37.2243 27.1684C35.6036 27.1684 34.2812 25.854 34.2812 24.2333L34.2828 16.9355C34.2828 15.3132 35.6052 14.0004 37.2258 14.0004H47.2972C48.9179 14.0004 50.2402 15.3132 50.2402 16.9355V24.2333C50.2402 25.8556 48.9179 27.1684 47.2972 27.1684H44.5018C44.2835 27.1684 44.0904 27.2752 43.9726 27.4401L42.6157 29.1881C42.4351 29.4205 42.0896 29.4205 41.909 29.1881L40.538 27.4213C40.3982 27.2407 40.1815 27.1543 39.9695 27.1716L39.9663 27.1716ZM37.2243 22.9156H44.1059C44.4671 22.9156 44.7592 22.6235 44.7592 22.2623C44.7592 21.9011 44.4671 21.609 44.1059 21.609H37.2243C36.8631 21.609 36.571 21.9011 36.571 22.2623C36.571 22.6235 36.8631 22.9156 37.2243 22.9156ZM37.2243 19.5596H47.2956C47.6568 19.5596 47.9489 19.2675 47.9489 18.9063C47.9489 18.5451 47.6568 18.253 47.2956 18.253H37.2243C36.8631 18.253 36.571 18.5451 36.571 18.9063C36.571 19.2675 36.8631 19.5596 37.2243 19.5596ZM20.1378 18.6692C20.0263 19.0115 19.6588 19.1984 19.3164 19.0869C18.9741 18.9754 18.7872 18.6079 18.8987 18.2656C19.4154 16.6778 21.5684 16.1658 22.8468 17.3186C24.0482 18.4022 23.6933 20.227 22.2469 20.896C21.7569 21.1222 21.837 21.5745 21.837 22.0299C21.837 22.3911 21.5449 22.6832 21.1837 22.6832C20.8225 22.6832 20.5304 22.3911 20.5304 22.0299C20.5304 21.43 20.4943 21.0012 20.8445 20.4531C21.3282 19.6962 21.8182 19.814 22.126 19.3601C22.5296 18.7649 22.0192 17.9985 21.1821 17.9985C20.7267 17.9985 20.2728 18.2514 20.1377 18.6675L20.1378 18.6692ZM20.565 23.8232C20.565 23.462 20.8571 23.1699 21.2183 23.1699C21.5795 23.1699 21.8716 23.462 21.8716 23.8248C21.8716 24.186 21.5795 24.4781 21.2183 24.4781C20.8571 24.4781 20.565 24.186 20.565 23.8248V23.8232Z" fill="#151419"/>
</svg>
