<svg width="64" height="64" viewBox="0 0 64 64" fill="none" xmlns="http://www.w3.org/2000/svg">
<rect width="64" height="64" rx="32" fill="#E8E8E8"/>
<path d="M14 28.0664V49.2501C14.0017 50.2673 14.8255 51.0894 15.841 51.0928H47.159C48.1745 51.0894 48.9983 50.2673 49 49.2501V28.0664C48.9983 27.0492 48.1745 26.2271 47.159 26.2236H44.3215C43.862 30.4773 41.3234 34.2282 37.5447 36.2336C33.7642 38.2387 29.2359 38.2387 25.4553 36.2336C21.6766 34.2286 19.1379 30.4773 18.6785 26.2236H15.841C14.8255 26.2271 14.0017 27.0492 14 28.0664ZM21.8286 48.3296C21.4556 48.3296 21.1205 48.1051 20.9772 47.7614C20.8356 47.416 20.9133 47.0205 21.1775 46.758C21.44 46.4937 21.8372 46.4143 22.1809 46.5577C22.5246 46.6993 22.7491 47.036 22.7491 47.4091C22.7474 47.9168 22.3363 48.3279 21.8286 48.3296ZM24.5918 48.3296C24.2188 48.3296 23.8837 48.1051 23.7404 47.7614C23.5988 47.416 23.6765 47.0205 23.9407 46.758C24.2033 46.4937 24.6005 46.4143 24.9441 46.5577C25.2878 46.6993 25.5123 47.036 25.5123 47.4091C25.5106 47.9168 25.0996 48.3279 24.5918 48.3296ZM27.3551 48.3296C26.9821 48.3296 26.647 48.1051 26.5037 47.7614C26.362 47.416 26.4398 47.0205 26.704 46.758C26.9665 46.4937 27.3637 46.4143 27.7074 46.5577C28.0511 46.6993 28.2756 47.036 28.2756 47.4091C28.2739 47.9168 27.8628 48.3279 27.3551 48.3296ZM31.5 40.0399H45.3162V47.4091H31.5V40.0399ZM19.0654 40.0399H27.3551C27.8645 40.0399 28.2756 40.4526 28.2756 40.9603C28.2756 41.4698 27.8645 41.8826 27.3551 41.8826H19.0654C18.5559 41.8826 18.1449 41.4698 18.1449 40.9603C18.1449 40.4526 18.5559 40.0399 19.0654 40.0399ZM19.0654 42.8031H27.3551C27.8645 42.8031 28.2756 43.2159 28.2756 43.7236C28.2756 44.233 27.8645 44.6458 27.3551 44.6458H19.0654C18.5559 44.6458 18.1449 44.233 18.1449 43.7236C18.1449 43.2159 18.5559 42.8031 19.0654 42.8031ZM19.0654 46.4868C19.4384 46.4868 19.7735 46.7113 19.9168 47.0568C20.0584 47.4004 19.9807 47.7959 19.7165 48.0602C19.4539 48.3227 19.0567 48.4021 18.7131 48.2588C18.3694 48.1172 18.1449 47.7804 18.1449 47.4091C18.1466 46.8996 18.5576 46.4886 19.0654 46.4868Z" fill="#151419"/>
<path d="M23.7363 27.7246C24.5238 29.8541 26.1507 31.5655 28.2353 32.4602C30.3198 33.3565 32.6826 33.3565 34.7668 32.4602C36.8513 31.5656 38.4781 29.8541 39.2658 27.7246C38.6786 26.5969 37.8565 25.6073 36.8531 24.8232C36.4645 24.521 35.9067 24.5745 35.582 24.9441C34.5545 26.1254 33.0657 26.8041 31.501 26.8041C29.9363 26.8041 28.4477 26.1254 27.4201 24.9441C27.0954 24.5728 26.5376 24.521 26.149 24.8232C25.1456 25.6073 24.3235 26.5969 23.7363 27.7246Z" fill="#151419"/>
<path d="M31.5005 24.3807C34.6956 24.2667 37.1981 21.5898 37.0978 18.3948C37.1979 15.1981 34.6955 12.5213 31.5005 12.4072C28.3055 12.5212 25.8029 15.1981 25.9033 18.3948C25.8031 21.5899 28.3056 24.2666 31.5005 24.3807ZM31.5005 22.5397C29.644 22.4654 28.1035 21.0838 27.8271 19.2462H28.461C28.8582 19.2462 29.2036 18.9716 29.2899 18.5831L29.7321 16.5469C29.7701 16.3863 29.8961 16.2619 30.0567 16.2257C30.2191 16.1911 30.3866 16.2516 30.4868 16.3811L32.421 18.9146C32.5834 19.1236 32.8303 19.2445 33.0946 19.2462H35.1756H35.1739C34.8976 21.0838 33.3571 22.4654 31.5005 22.5397Z" fill="#151419"/>
<path d="M23.5105 16.6347C21.1133 18.7831 19.7473 21.8522 19.7559 25.0712C19.8371 29.2126 22.0943 33.0033 25.6936 35.0499C29.2944 37.0964 33.7052 37.0964 37.3063 35.0499C40.9054 33.0033 43.1626 29.2126 43.2439 25.0712C43.2526 21.8521 41.8865 18.783 39.4894 16.6347C39.308 16.4689 39.068 16.3808 38.8245 16.3912C38.5792 16.4033 38.3478 16.5104 38.182 16.6917C38.0179 16.873 37.9316 17.1131 37.9437 17.3583C37.9558 17.6036 38.0663 17.8333 38.2494 17.9973C40.2614 19.7986 41.4081 22.3719 41.4012 25.0712C41.32 28.5529 39.4151 31.7357 36.384 33.4543C33.3548 35.1709 29.6452 35.1709 26.6158 33.4543C23.5849 31.7359 21.68 28.5529 21.5987 25.0712C21.5918 22.3719 22.7385 19.7985 24.7505 17.9973C24.9336 17.8333 25.0441 17.6036 25.0562 17.3583C25.0683 17.1131 24.9819 16.873 24.8179 16.6917C24.6521 16.5104 24.4206 16.4033 24.1754 16.3912C23.9319 16.3808 23.6918 16.4689 23.5105 16.6347Z" fill="#151419"/>
</svg>
