<svg width="64" height="64" viewBox="0 0 64 64" fill="none" xmlns="http://www.w3.org/2000/svg">
<rect width="64" height="64" rx="32" fill="#E8E8E8"/>
<path fill-rule="evenodd" clip-rule="evenodd" d="M23.9994 18.4958C23.7534 18.6289 23.4435 18.5414 23.3049 18.299C23.1645 18.0547 23.2429 17.7448 23.4836 17.599C28.8376 14.5218 35.4237 14.5218 40.7778 17.599C41.0148 17.7448 41.0932 18.0529 40.9546 18.2953C40.8161 18.5378 40.5117 18.6271 40.2637 18.4958C35.2289 15.6083 29.038 15.6083 24.0013 18.4958L23.9994 18.4958ZM37.9486 36.9637C37.7992 37.1114 37.7153 37.3156 37.7153 37.527V39.957C37.7153 40.0463 37.7882 40.121 37.8794 40.121H39.1445C39.2356 40.121 39.3085 40.0463 39.3085 39.957V37.527C39.3085 37.2044 39.1135 36.9145 38.8163 36.7924C38.5192 36.6684 38.1765 36.7359 37.9486 36.9637ZM40.3057 36.5445C40.1799 36.5955 40.0323 36.6502 39.9083 36.6958V36.6976C39.8645 36.714 39.8299 36.7468 39.8135 36.7887C39.7953 36.8325 39.7971 36.8799 39.8172 36.9218C40.0231 37.3539 39.8645 37.5416 40.025 37.6383C40.1927 37.7403 40.5299 37.4614 40.5299 37.0859V36.6976C40.5299 36.6429 40.5026 36.5919 40.457 36.5609C40.4132 36.5317 40.3549 36.5244 40.3039 36.5463L40.3057 36.5445ZM39.2885 36.2473L40.1289 35.9283L40.127 35.9302C40.3731 35.8408 40.5354 35.6057 40.5299 35.345V31.8888C40.5299 31.8359 40.5026 31.7867 40.4606 31.7557C40.4169 31.7247 40.3604 31.7174 40.3093 31.7356L38.5521 32.3572L38.5539 32.3554C38.4828 32.3809 38.439 32.4484 38.4445 32.5231L38.707 35.9794C38.7198 36.1544 38.8911 36.1106 39.1554 36.2419C39.1955 36.2637 39.2429 36.2656 39.2867 36.2492L39.2885 36.2473ZM36.853 37.8552L32.5929 39.4739C32.3048 39.587 31.984 39.587 31.696 39.4739L23.9815 36.5445C23.9304 36.5245 23.8739 36.5318 23.8302 36.5627C23.7846 36.5937 23.7591 36.643 23.7591 36.6976V37.0859C23.7536 37.3484 23.9159 37.5836 24.1601 37.6711L31.9222 40.6187C32.0644 40.6753 32.2248 40.6753 32.367 40.6187L36.9699 38.8706C37.0337 38.8469 37.0756 38.7849 37.0756 38.7174V38.0101C37.0756 37.9555 37.0483 37.9044 37.0046 37.8734C36.9608 37.8443 36.9025 37.837 36.8532 37.857L36.853 37.8552ZM23.7588 35.345V31.8887C23.7588 31.8359 23.7843 31.7867 23.8281 31.7557C23.8718 31.7247 23.9265 31.7174 23.9775 31.7356L31.7252 34.4737C31.995 34.5739 32.2939 34.5739 32.5637 34.4737L37.608 32.6908L37.6098 32.689C37.6572 32.6726 37.71 32.6781 37.752 32.7054C37.7957 32.7328 37.8231 32.7783 37.8267 32.8294L38.0692 36.0286C38.0764 36.0997 38.0345 36.1672 37.9689 36.1927C37.608 36.3403 37.3199 36.6284 37.1759 36.9911C37.1595 37.033 37.1249 37.0677 37.0811 37.0841L32.3669 38.876C32.2247 38.9325 32.0642 38.9325 31.9221 38.876L24.16 35.9302C23.9157 35.8408 23.7533 35.6057 23.7588 35.345ZM36.8764 31.9726C36.9384 31.9999 36.9766 32.0619 36.973 32.1293C36.9712 32.195 36.9274 32.2533 36.8636 32.277L32.3519 33.8721C32.2188 33.9213 32.0693 33.9213 31.9362 33.8721L19.9102 29.6192C19.8446 29.5973 19.8008 29.5353 19.8008 29.466C19.8008 29.395 19.8446 29.333 19.9102 29.3111L31.9362 25.0582C32.0693 25.009 32.2188 25.009 32.3519 25.0582L44.3779 29.3111C44.4435 29.333 44.4873 29.395 44.4873 29.466C44.4873 29.5353 44.4435 29.5973 44.3779 29.6192L38.1745 31.814C38.1344 31.8285 38.0906 31.8267 38.0523 31.8085L32.2773 29.1744C32.1169 29.1015 31.9273 29.1707 31.8544 29.3312C31.7815 29.4916 31.8508 29.6812 32.0112 29.7541L36.8764 31.9726ZM45.2764 11.0434C46.5507 11.0434 47.6973 11.8108 48.184 12.9867C48.6725 14.1624 48.4027 15.5151 47.5022 16.4156C46.6035 17.3161 45.2491 17.5859 44.0733 17.0974C42.8975 16.6106 42.13 15.464 42.13 14.1916C42.1319 12.4543 43.5391 11.047 45.2746 11.047L45.2764 11.0434ZM19.1574 17.6244C16.392 17.6317 14.1533 19.872 14.1463 22.6355V24.4511C14.1482 25.6214 15.0961 26.5693 16.2664 26.5693H22.047C23.2174 26.5675 24.1653 25.6196 24.1671 24.4511V22.6355C24.1598 19.8701 21.9213 17.6295 19.156 17.6225L19.1574 17.6244ZM19.1556 11C20.428 11 21.5765 11.7674 22.0632 12.9433C22.5499 14.119 22.2801 15.4717 21.3814 16.3722C20.4809 17.2727 19.1265 17.5407 17.9507 17.054C16.7749 16.5672 16.0092 15.4188 16.0092 14.1464C16.0092 12.4091 17.4183 11 19.1556 11ZM19.0134 44.0532C21.777 44.0605 24.0175 46.3009 24.0245 49.0643V50.8799C24.0227 52.0502 23.0747 52.9982 21.9044 53H16.1201C14.9498 52.9982 14.0018 52.0502 14 50.8799V49.0643C14.0073 46.3007 16.2481 44.0602 19.0134 44.0532ZM19.0134 37.4307C20.2858 37.4307 21.4324 38.1963 21.9192 39.3722C22.4077 40.5479 22.1379 41.9024 21.2374 42.8029C20.3387 43.7016 18.9843 43.9714 17.8085 43.4847C16.6327 42.9979 15.8652 41.8495 15.8652 40.5771C15.8652 38.8398 17.2743 37.4307 19.0134 37.4307ZM45.2397 43.9734V43.9716C48.0051 43.9807 50.2457 46.2211 50.2508 48.9864V50.802C50.249 51.9723 49.3011 52.9203 48.1307 52.9203H42.3464C41.1761 52.9185 40.2281 51.9724 40.2263 50.802V48.9864C40.2336 46.2228 42.4722 43.9823 45.2374 43.9753L45.2397 43.9734ZM45.2397 37.3491C46.5122 37.3491 47.6588 38.1165 48.1473 39.2924C48.6341 40.4681 48.3642 41.8208 47.4637 42.7213C46.565 43.6218 45.2106 43.8898 44.0348 43.403C42.859 42.9163 42.0934 41.7697 42.0934 40.4955C42.0934 38.7582 43.5025 37.3491 45.2397 37.3491ZM45.2762 17.6687V17.6669C42.5108 17.6742 40.2702 19.9145 40.2632 22.6798V24.4936C40.2669 25.6639 41.2148 26.6119 42.3833 26.6137H48.1677C49.338 26.6119 50.2859 25.6639 50.2878 24.4936V22.6798C50.2805 19.9144 48.0401 17.6757 45.2748 17.6669L45.2762 17.6687ZM16.5761 37.5899C15.5935 34.4817 15.5589 31.1531 16.4776 28.0269C16.5578 27.7516 16.4011 27.4636 16.1258 27.3816C15.8505 27.3014 15.5625 27.46 15.4823 27.7334C14.5089 31.0584 14.5435 34.5986 15.5844 37.9016C15.6755 38.1696 15.9636 38.3154 16.2333 38.2298C16.5031 38.1459 16.6563 37.8596 16.5761 37.5899ZM39.0382 47.4389C39.2953 47.3222 39.5997 47.4334 39.72 47.6905C39.8403 47.9475 39.7309 48.2537 39.4757 48.3777C34.82 50.5506 29.4405 50.5506 24.785 48.3777C24.6592 48.3194 24.5608 48.2155 24.5134 48.0842C24.466 47.9548 24.4714 47.8108 24.5298 47.6868C24.5881 47.561 24.6957 47.4644 24.8251 47.417C24.9563 47.3715 25.0985 47.3788 25.2243 47.4389C29.603 49.477 34.658 49.477 39.0368 47.4389L39.0382 47.4389ZM47.7846 28.0245C48.7034 31.1527 48.6687 34.4814 47.6861 37.5875C47.6078 37.8591 47.7591 38.1453 48.0289 38.2292C48.2986 38.3149 48.5867 38.169 48.6778 37.9011C49.7187 34.5961 49.7552 31.0578 48.7799 27.7328C48.6997 27.4576 48.4117 27.3008 48.1364 27.381C47.8611 27.463 47.7044 27.7511 47.7846 28.0245Z" fill="#151419"/>
</svg>
