<svg width="64" height="64" viewBox="0 0 64 64" fill="none" xmlns="http://www.w3.org/2000/svg">
<rect width="64" height="64" rx="32" fill="#E8E8E8"/>
<path d="M49.2625 43.4994C49.2099 44.4957 48.7652 45.4308 48.0256 46.1004C47.2859 46.77 46.3114 47.1198 45.3148 47.0734H14.9477C13.9202 47.0814 12.9265 46.7067 12.1602 46.0222C11.7995 45.7076 11.5095 45.3201 11.3096 44.8852C11.1096 44.4504 11.0041 43.978 11 43.4994C11.0134 43.2699 11.1164 43.0548 11.2868 42.9005C11.4571 42.7461 11.6813 42.6648 11.911 42.6741H24.0345C24.1723 42.678 24.3066 42.7183 24.4238 42.7908C24.9179 43.1342 25.4914 43.3459 26.0901 43.406H34.1802C34.7867 43.4311 35.3825 43.2407 35.8621 42.8687C35.9942 42.7556 36.1631 42.6947 36.337 42.6974L46.9655 42.6741H48.3515C48.5812 42.6648 48.8054 42.7461 48.9758 42.9005C49.1461 43.0548 49.2491 43.2699 49.2625 43.4994Z" fill="#151419"/>
<path d="M30.1878 30.6685C30.7575 30.6684 31.3145 30.4994 31.7882 30.1828C32.2619 29.8662 32.631 29.4162 32.849 28.8898C33.067 28.3634 33.1239 27.7842 33.0127 27.2254C32.9015 26.6666 32.6271 26.1533 32.2241 25.7505C31.8212 25.3476 31.3079 25.0733 30.749 24.9623C30.1902 24.8512 29.611 24.9083 29.0846 25.1264C28.5583 25.3445 28.1084 25.7138 27.7919 26.1876C27.4754 26.6614 27.3066 27.2184 27.3066 27.7881C27.3075 28.5519 27.6114 29.2841 28.1515 29.8241C28.6917 30.3641 29.424 30.6678 30.1878 30.6685Z" fill="#151419"/>
<path d="M33.5617 34.7502H26.814C26.1068 34.751 25.4288 35.0323 24.9287 35.5324C24.4286 36.0325 24.1473 36.7105 24.1465 37.4177V38.2808H36.2292V37.4177C36.2284 36.7105 35.9471 36.0325 35.447 35.5324C34.9469 35.0324 34.2689 34.7511 33.5617 34.7502Z" fill="#151419"/>
<path d="M44.5202 26.9766C43.6572 26.9779 42.7963 26.8918 41.9507 26.7197C40.5121 27.651 38.8742 28.2299 37.1698 28.4093C37.092 28.4171 37.0141 28.4249 36.944 28.4249C36.6149 28.4247 36.2926 28.3302 36.0155 28.1525C35.7384 27.9749 35.518 27.7216 35.3804 27.4225C35.2427 27.1235 35.1936 26.7913 35.2389 26.4653C35.2842 26.1393 35.422 25.833 35.6359 25.5828C36.0406 25.0909 36.3401 24.5211 36.5158 23.9088C36.0112 23.3989 35.586 22.8162 35.2544 22.1802H14.27C13.9949 22.1994 13.7385 22.3262 13.5563 22.5332C13.3741 22.7402 13.2808 23.0106 13.2966 23.2858V41.1246H24.0341C24.4665 41.1239 24.8902 41.2453 25.2566 41.4749C25.5062 41.6545 25.7896 41.7816 26.0897 41.8487H34.1798C34.404 41.8611 34.6273 41.8127 34.8261 41.7085C35.24 41.3405 35.7751 41.1381 36.3289 41.1401L46.9652 41.1246V26.743C46.1598 26.9008 45.3409 26.9791 44.5202 26.9766ZM30.1854 23.3481C31.0632 23.3481 31.9213 23.6084 32.6512 24.0961C33.381 24.5838 33.9499 25.277 34.2858 26.088C34.6218 26.8989 34.7096 27.7913 34.5384 28.6523C34.3671 29.5132 33.9444 30.304 33.3237 30.9247C32.703 31.5454 31.9122 31.9681 31.0513 32.1394C30.1903 32.3106 29.2979 32.2227 28.487 31.8868C27.676 31.5509 26.9828 30.982 26.4951 30.2522C26.0074 29.5223 25.7471 28.6642 25.7471 27.7864C25.7479 26.6095 26.2158 25.4811 27.048 24.649C27.8801 23.8168 29.0086 23.3489 30.1854 23.3481ZM37.785 39.0612C37.7844 39.2675 37.7021 39.4652 37.5562 39.6111C37.4104 39.757 37.2126 39.8392 37.0063 39.8398H23.3723C23.2699 39.8402 23.1685 39.8203 23.0739 39.7813C22.9793 39.7423 22.8933 39.6849 22.8209 39.6125C22.7485 39.5402 22.6912 39.4542 22.6522 39.3596C22.6132 39.2649 22.5933 39.1635 22.5936 39.0612V37.4182C22.5942 36.2984 23.0388 35.2245 23.8299 34.432C24.621 33.6394 25.6941 33.1928 26.8139 33.1902H33.5647C34.6845 33.1928 35.7576 33.6394 36.5487 34.4319C37.3398 35.2245 37.7844 36.2984 37.785 37.4182V39.0612Z" fill="#151419"/>
<path d="M44.5205 13C39.8019 13 36.0488 15.8187 36.0488 19.2136C36.0594 20.2893 36.4233 21.3316 37.0844 22.1802C37.356 22.5523 37.6695 22.892 38.0188 23.1924C38.3536 23.4805 37.902 25.3415 36.8119 26.6029C36.7919 26.6291 36.7802 26.6607 36.7782 26.6936C36.7762 26.7264 36.7841 26.7592 36.8008 26.7876C36.8175 26.816 36.8423 26.8388 36.872 26.853C36.9017 26.8673 36.935 26.8724 36.9676 26.8676C38.666 26.6568 40.2879 26.0369 41.694 25.0612C42.6169 25.3014 43.5668 25.4218 44.5205 25.4194C45.3426 25.4198 46.1624 25.331 46.9654 25.1546C50.4537 24.3915 52.9999 22.0167 52.9999 19.2136C52.9999 15.7798 49.2001 13.0078 44.5205 13ZM40.0962 16.8971H44.0054C44.2119 16.8971 44.41 16.9791 44.556 17.1252C44.702 17.2712 44.784 17.4692 44.784 17.6758C44.784 17.8823 44.702 18.0803 44.556 18.2263C44.41 18.3724 44.2119 18.4544 44.0054 18.4544H40.0962C39.8897 18.4544 39.6917 18.3724 39.5456 18.2263C39.3996 18.0803 39.3176 17.8823 39.3176 17.6758C39.3176 17.4692 39.3996 17.2712 39.5456 17.1252C39.6917 16.9791 39.8897 16.8971 40.0962 16.8971ZM48.6966 21.3827H40.0962C39.8897 21.3827 39.6917 21.3006 39.5456 21.1546C39.3996 21.0086 39.3176 20.8105 39.3176 20.604C39.3176 20.3975 39.3996 20.1995 39.5456 20.0534C39.6917 19.9074 39.8897 19.8254 40.0962 19.8254H48.6966C48.9031 19.8254 49.1012 19.9074 49.2472 20.0534C49.3932 20.1995 49.4752 20.3975 49.4752 20.604C49.4752 20.8105 49.3932 21.0086 49.2472 21.1546C49.1012 21.3006 48.9032 21.3827 48.6966 21.3827Z" fill="#151419"/>
</svg>
