<svg width="60" height="61" viewBox="0 0 60 61" fill="none" xmlns="http://www.w3.org/2000/svg">
<rect y="0.5" width="60" height="60" rx="30" fill="white"/>
<path d="M44.5576 42.0897V34.7362L32.4602 38.3695C31.8239 38.5591 31.1635 38.6563 30.4995 38.6581C29.8307 38.6552 29.1657 38.5581 28.524 38.3696L16.4414 34.7362V42.0897C16.4446 42.7579 16.7115 43.3978 17.184 43.8704C17.6565 44.3429 18.2964 44.6097 18.9647 44.6129H42.0344C42.7026 44.6097 43.3426 44.3429 43.8151 43.8704C44.2876 43.3978 44.5544 42.7579 44.5576 42.0897Z" fill="#151419"/>
<path d="M46 24.7874C45.9992 24.1184 45.7331 23.4771 45.26 23.0041C44.787 22.5311 44.1457 22.265 43.4767 22.2641H40.2325V21.1736C40.2385 20.2964 39.9511 19.4424 39.4159 18.7473C38.8808 18.0522 38.1287 17.5559 37.2791 17.3373C32.8317 16.2219 28.1778 16.2209 23.73 17.3344C22.8787 17.5523 22.1248 18.0485 21.588 18.7441C21.0512 19.4398 20.7624 20.2949 20.7675 21.1736V22.2641H17.5233C16.8543 22.265 16.213 22.5311 15.74 23.0041C15.2669 23.4771 15.0008 24.1184 15 24.7874V30.9237C14.9976 31.4671 15.1716 31.9965 15.496 32.4324C15.8204 32.8683 16.2776 33.1871 16.7988 33.3407L28.9462 36.9847C29.9592 37.2908 31.0401 37.2908 32.0531 36.9847L44.2012 33.3407C44.7224 33.1871 45.1796 32.8683 45.504 32.4324C45.8284 31.9965 46.0024 31.4671 46 30.9237V24.7874ZM22.9302 21.1736C22.9256 20.7769 23.0536 20.3901 23.2941 20.0746C23.5346 19.7591 23.8736 19.5331 24.2573 19.4325C28.3587 18.4056 32.6501 18.4066 36.751 19.4354C37.1332 19.5366 37.4706 19.7626 37.7095 20.0775C37.9485 20.3925 38.0753 20.7783 38.0698 21.1736V22.2641H22.9302V21.1736ZM30.5 34.1595C30.0722 34.1595 29.6541 34.0326 29.2984 33.795C28.9428 33.5573 28.6655 33.2195 28.5018 32.8243C28.3381 32.4291 28.2953 31.9943 28.3788 31.5747C28.4622 31.1552 28.6682 30.7698 28.9707 30.4674C29.2731 30.1649 29.6585 29.9589 30.0781 29.8755C30.4976 29.792 30.9325 29.8348 31.3277 29.9985C31.7229 30.1622 32.0606 30.4394 32.2983 30.7951C32.5359 31.1508 32.6628 31.5689 32.6628 31.9967C32.6628 32.5703 32.4349 33.1204 32.0293 33.526C31.6237 33.9316 31.0736 34.1594 30.5 34.1595Z" fill="#151419"/>
</svg>
