<svg width="64" height="64" viewBox="0 0 64 64" fill="none" xmlns="http://www.w3.org/2000/svg">
<rect width="64" height="64" rx="32" fill="#9DDAF0"/>
<path d="M37.9743 24.5748C35.0453 24.5731 32.6698 22.1599 32.668 19.1843V13.1115C32.2978 13.0366 31.9208 12.9983 31.5437 13.0001H19.0806C15.7215 13.0053 13.0018 15.7719 13 19.1843V45.8157C13.0017 49.2282 15.7216 51.9947 19.0806 52H36.8228C40.1819 51.9948 42.9016 49.2282 42.9034 45.8157V25.1877C42.9051 24.9822 42.8948 24.7785 42.8691 24.5748H37.9743ZM33.4358 27.6252H38.9202C39.2955 27.6304 39.5955 27.9403 39.5955 28.3216C39.5955 28.7029 39.2956 29.0128 38.9202 29.018H33.4358C33.0605 29.0128 32.7606 28.7029 32.7606 28.3216C32.7606 27.9403 33.0605 27.6304 33.4358 27.6252ZM33.4358 31.8037H38.9202C39.2955 31.809 39.5955 32.1189 39.5955 32.5002C39.5955 32.8815 39.2956 33.1914 38.9202 33.1966H33.4358C33.0605 33.1914 32.7606 32.8815 32.7606 32.5002C32.7606 32.1189 33.0605 31.8089 33.4358 31.8037ZM16.2974 30.1811C16.2974 28.6368 17.2692 27.2648 18.7105 26.7756L21.0208 25.9956C19.6309 24.9196 19.0722 23.0636 19.6309 21.3815C20.1896 19.6997 21.7423 18.568 23.4888 18.568C25.2352 18.568 26.788 19.6997 27.3467 21.3815C27.9054 23.0634 27.3467 24.9194 25.9567 25.9956L28.2602 26.7756C29.7033 27.2631 30.6767 28.635 30.6733 30.1811V31.6714C30.675 32.5106 30.0049 33.1932 29.1788 33.1966H17.7986C17.4009 33.1966 17.0188 33.0365 16.7377 32.7492C16.4549 32.4636 16.2972 32.0754 16.2972 31.6714L16.2974 30.1811ZM38.9202 45.0358H16.9827C16.6091 45.0306 16.3075 44.7207 16.3075 44.3394C16.3075 43.9581 16.6091 43.6482 16.9827 43.643H38.9202C39.2938 43.6482 39.5955 43.9581 39.5955 44.3394C39.5955 44.7207 39.2939 45.0306 38.9202 45.0358ZM39.6058 40.8572C39.604 41.242 39.299 41.5519 38.9202 41.5537H16.9827C16.604 41.5519 16.2989 41.242 16.2972 40.8572V35.982C16.2989 35.5973 16.604 35.2873 16.9827 35.2856H38.9202C39.299 35.2873 39.604 35.5973 39.6058 35.982V40.8572Z" fill="#151419"/>
<path d="M37.9739 23.182H42.5671C42.31 22.4037 41.8987 21.6847 41.3606 21.0718L36.082 15.0685C35.5147 14.4208 34.8189 13.902 34.0391 13.5503V19.1846C34.0391 21.3922 35.8006 23.182 37.9739 23.182Z" fill="#151419"/>
<path d="M17.668 36.6785H38.2343V40.1606H17.668V36.6785Z" fill="#151419"/>
<path d="M26.1892 22.7081C26.1755 21.2021 24.9706 19.9885 23.4881 19.9885C22.0056 19.9885 20.8008 21.2021 20.7871 22.7081C20.8008 24.2141 22.0056 25.4277 23.4881 25.4277C24.9706 25.4277 26.1755 24.2141 26.1892 22.7081Z" fill="#151419"/>
<path d="M17.7981 31.8038H29.1784C29.2127 31.8038 29.2453 31.7899 29.2675 31.7638C29.2915 31.7394 29.3035 31.7063 29.3018 31.6715V30.1811C29.3052 29.2357 28.7105 28.3966 27.8279 28.0988C26.9401 27.8498 24.4002 26.7738 23.4884 26.8452C22.5526 26.7704 20.0555 27.8551 19.142 28.0988C18.2611 28.4 17.6681 29.2375 17.6681 30.1811V31.6715C17.6664 31.7063 17.6801 31.7412 17.7058 31.7655C17.7298 31.7917 17.7639 31.8056 17.7981 31.8038Z" fill="#151419"/>
<path d="M49.9848 17.8752H46.7559C46 17.877 45.3865 18.5003 45.3848 19.2681V22.7502H51.3557V19.2681C51.3557 18.899 51.2117 18.5438 50.9547 18.2827C50.6976 18.0215 50.3481 17.8752 49.9848 17.8752Z" fill="#151419"/>
<path d="M45.3848 24.1431H51.3557V43.6011H45.3848V24.1431Z" fill="#151419"/>
<path d="M47.7217 51.5265C47.8194 51.8051 48.0782 51.9897 48.3696 51.9897C48.661 51.9897 48.9197 51.8051 49.0175 51.5265L51.1632 44.9941H45.5762L47.7217 51.5265Z" fill="#151419"/>
<rect width="64" height="64" rx="32" fill="#BDCD36"/>
<path fill-rule="evenodd" clip-rule="evenodd" d="M20.2905 14.9333H39.5516C40.1431 14.9333 40.6824 15.1765 41.0731 15.5664C41.4657 15.9594 41.7084 16.4978 41.7084 17.0906V31.1615C41.5206 31.0875 41.3204 31.0477 41.1193 31.0477C40.8757 31.0477 40.6225 31.1076 40.3798 31.2301L40.085 31.3818L39.8126 31.3357C39.5567 31.2863 39.2875 31.3014 39.0315 31.3791C38.7824 31.455 38.5484 31.5907 38.3565 31.7836L38.1202 32.0217L37.8711 32.0605C37.6078 32.0893 37.351 32.1835 37.1298 32.3325C36.9141 32.4796 36.7294 32.6867 36.6001 32.9394L36.4511 33.2342L36.1567 33.3828C35.9264 33.4998 35.7258 33.6693 35.5786 33.8791C35.431 34.0811 35.33 34.3202 35.2897 34.5743L35.2349 34.9074L34.9972 35.1396C34.8208 35.3156 34.6842 35.5386 34.6037 35.7895C34.5283 36.0208 34.5045 36.2754 34.5457 36.5377L34.5991 36.8677L34.4479 37.1625C34.3286 37.3933 34.265 37.6488 34.265 37.9029C34.265 38.1492 34.324 38.4034 34.4479 38.6433L34.5996 38.9381L34.5534 39.2105C34.5036 39.4674 34.5187 39.7366 34.5969 39.9911C34.6736 40.2439 34.8076 40.4774 35.0013 40.6666L35.2395 40.9029L35.2783 41.1525C35.3071 41.4198 35.4008 41.6744 35.5498 41.8929L35.5544 41.8974C35.7038 42.1136 35.9067 42.2969 36.1563 42.423L36.452 42.5725L36.6028 42.865C36.7152 43.0885 36.8752 43.2827 37.0699 43.4299L37.0685 45.8531H20.2905C19.6978 45.8531 19.1594 45.6105 18.7686 45.2206C18.3764 44.828 18.1333 44.2882 18.1333 43.6959V17.0906C18.1333 16.4992 18.376 15.9603 18.7663 15.5686L18.77 15.565C19.1612 15.1756 19.6996 14.9333 20.2905 14.9333ZM41.644 35.348L42.2258 36.6241L43.6189 36.7831C43.9351 36.8174 44.1641 37.1035 44.1294 37.4203C44.112 37.5793 44.0316 37.716 43.9155 37.8083L42.9104 38.7283L43.1902 40.104C43.2532 40.4157 43.0521 40.721 42.7404 40.7841C42.5983 40.8129 42.4575 40.7868 42.341 40.7206L41.1198 40.0304L39.8999 40.721C39.6229 40.8782 39.271 40.7809 39.1138 40.5039C39.0398 40.3737 39.0219 40.2265 39.053 40.0908L39.33 38.7283L38.2966 37.7818C38.0617 37.5674 38.0457 37.2027 38.26 36.9683C38.3583 36.8608 38.4877 36.7991 38.6216 36.785L40.0142 36.6241L40.5955 35.348C40.7276 35.0587 41.0699 34.9312 41.3593 35.0633C41.4904 35.1232 41.5887 35.2265 41.644 35.348ZM44.134 42.732V49.1818C44.134 49.5008 43.8748 49.7599 43.5553 49.7599C43.3798 49.7599 43.2222 49.6813 43.1157 49.5575L41.1458 47.5625L39.0896 49.5931C38.8629 49.8162 38.4968 49.813 38.2738 49.5863C38.1636 49.4743 38.1083 49.328 38.1083 49.1818L38.1065 42.7315L37.9547 42.7082C37.7642 42.679 37.6097 42.5588 37.5283 42.3984L37.2248 41.7992L36.6243 41.4962C36.4415 41.4038 36.329 41.2274 36.3099 41.0373L36.2125 40.4052L35.734 39.9303C35.5923 39.79 35.5393 39.593 35.5745 39.4102L35.6791 38.7658L35.3711 38.1675C35.2824 37.9957 35.2893 37.7996 35.3711 37.6392L35.6791 37.0409L35.5713 36.3755C35.5411 36.1858 35.6074 36.003 35.7344 35.8768L36.2107 35.4038L36.3126 34.7397C36.3432 34.5359 36.4776 34.3727 36.6545 34.2959L37.2253 34.008L37.5274 33.4074C37.6202 33.2251 37.7962 33.1122 37.9863 33.0934L38.6179 32.9956L39.0932 32.5171C39.234 32.3754 39.4305 32.3224 39.6133 32.3576L40.2573 32.4623L40.8556 32.1547C41.0375 32.061 41.2464 32.0738 41.4114 32.1702L41.9808 32.4623L42.6481 32.3544C42.8382 32.3242 43.0206 32.391 43.1467 32.5176L43.6198 32.9938L44.2839 33.0962C44.4877 33.1264 44.6509 33.2607 44.7281 33.4371L45.016 34.008L45.6157 34.311C45.7985 34.4029 45.9109 34.5798 45.9301 34.7694L46.0279 35.402L46.5065 35.8764C46.6477 36.0171 46.7007 36.2137 46.6655 36.396L46.5613 37.0409L46.8693 37.6392C46.958 37.8115 46.9512 38.0076 46.8693 38.1675L46.5613 38.7663L46.6687 39.4312C46.6989 39.6214 46.6326 39.8037 46.506 39.9299L46.0275 40.4057L45.9251 41.0688C45.8958 41.2599 45.7756 41.4144 45.6152 41.4953L45.0156 41.7996L44.713 42.3988C44.6207 42.5816 44.4443 42.6941 44.2542 42.7133L44.134 42.732ZM41.6248 33.5747L41.1211 33.316L40.6175 33.5747C40.5119 33.6286 40.3885 33.651 40.2628 33.6314L39.7029 33.5404L39.3035 33.9426C39.2194 34.0267 39.1092 34.0857 38.9826 34.1053L38.425 34.1913L38.17 34.6977C38.1161 34.8042 38.0292 34.8947 37.915 34.9527L37.4104 35.2068L37.3249 35.7639C37.3057 35.8819 37.2509 35.9961 37.16 36.0871L36.7573 36.4865L36.8446 37.0268C36.8688 37.1497 36.8528 37.2809 36.7916 37.4006L36.5329 37.9034L36.7916 38.4061C36.845 38.5117 36.8679 38.6346 36.8478 38.7603L36.7573 39.3206L37.1595 39.7196C37.2431 39.8037 37.3025 39.9143 37.3222 40.0409L37.4081 40.599L37.9145 40.8545C38.021 40.908 38.1115 40.9952 38.1696 41.1095L38.4246 41.615L38.9589 41.6977C39.085 41.7114 39.2075 41.7672 39.3035 41.8636L39.7034 42.2663L40.2436 42.179C40.3666 42.1548 40.4977 42.1708 40.6175 42.2325L41.1211 42.4911L41.6033 42.2434C41.713 42.1813 41.8433 42.1548 41.9772 42.1758L42.5375 42.2663L42.9319 41.8687C43.0165 41.7827 43.1285 41.721 43.2573 41.7018L43.8154 41.615L44.0704 41.11C44.1244 41.0035 44.2112 40.9125 44.3259 40.8549L44.8319 40.5994L44.9141 40.0647C44.9283 39.9386 44.984 39.8161 45.0805 39.7201L45.4831 39.3206L45.3958 38.7795C45.3716 38.657 45.3876 38.5259 45.4489 38.4061L45.7075 37.9034L45.4489 37.4006C45.3954 37.295 45.3725 37.1721 45.3926 37.0464L45.4831 36.4865L45.0809 36.0875C44.9973 36.003 44.9379 35.8928 44.9182 35.7662L44.8319 35.2082L44.3264 34.9527C44.2194 34.8988 44.1289 34.8119 44.0709 34.6977L43.8168 34.1936L43.2592 34.1081C43.1413 34.0889 43.027 34.0345 42.9365 33.9431L42.5375 33.5404L41.9772 33.6314C41.8606 33.6488 41.7377 33.6323 41.6248 33.5747ZM22.5465 21.3296C22.2275 21.3296 21.9679 21.0705 21.9679 20.751C21.9679 20.4316 22.2275 20.1724 22.5465 20.1724H37.2948C37.6143 20.1724 37.8734 20.4316 37.8734 20.751C37.8734 21.0705 37.6143 21.3296 37.2948 21.3296H22.5465ZM22.5465 40.6141C22.2275 40.6141 21.9679 40.3549 21.9679 40.0359C21.9679 39.7164 22.2275 39.4573 22.5465 39.4573H31.0612C31.3802 39.4573 31.6398 39.7164 31.6398 40.0359C31.6398 40.3549 31.3802 40.6141 31.0612 40.6141H22.5465ZM22.5465 35.7932C22.2275 35.7932 21.9679 35.5341 21.9679 35.2146C21.9679 34.8951 22.2275 34.636 22.5465 34.636H31.0612C31.3802 34.636 31.6398 34.8951 31.6398 35.2146C31.6398 35.5341 31.3802 35.7932 31.0612 35.7932H22.5465ZM22.5465 30.9719C22.2275 30.9719 21.9679 30.7127 21.9679 30.3932C21.9679 30.0742 22.2275 29.8151 22.5465 29.8151H34.1023C34.4214 29.8151 34.6805 30.0742 34.6805 30.3932C34.6805 30.7127 34.4214 30.9719 34.1023 30.9719H22.5465ZM22.5465 26.1505C22.2275 26.1505 21.9679 25.8914 21.9679 25.5724C21.9679 25.2529 22.2275 24.9938 22.5465 24.9938H37.2948C37.6143 24.9938 37.8734 25.2529 37.8734 25.5724C37.8734 25.8914 37.6143 26.1505 37.2948 26.1505H22.5465Z" fill="#151419"/>
</svg>
