<svg width="15" height="14" viewBox="0 0 15 14" fill="none" xmlns="http://www.w3.org/2000/svg">
<path d="M7.89004 0.582705L8.95747 3.75953C9.0736 4.10699 9.4108 4.34223 9.7882 4.34223H13.2428C14.0892 4.34223 14.4398 5.38894 13.7565 5.87021L10.9606 7.83415C10.6547 8.04996 10.5274 8.4298 10.6435 8.77727L11.7109 11.9541C11.9722 12.731 11.0521 13.3785 10.3666 12.8972L7.5707 10.9333C7.26477 10.7175 6.8494 10.7175 6.54346 10.9333L3.74759 12.8972C3.06202 13.3785 2.14197 12.731 2.40325 11.9541L3.47068 8.77727C3.58681 8.4298 3.45952 8.04781 3.15358 7.83415L0.362171 5.87021C-0.323399 5.38894 0.0294352 4.34223 0.87579 4.34223H4.33044C4.70784 4.34223 5.04504 4.10699 5.16116 3.75953L6.22859 0.582705C6.48987 -0.194235 7.62876 -0.194235 7.89004 0.582705Z" fill="black"/>
</svg>
