<svg width="80" height="80" viewBox="0 0 80 80" fill="none" xmlns="http://www.w3.org/2000/svg">
<rect width="80" height="80" rx="40" fill="#F7F6F6"/>
<path d="M19 20.4035V56.4439C19 60.4303 21.0339 60.8777 21.8881 60.8777H57.3183C58.9047 60.8777 60.2064 59.576 60.2064 57.9896V20.4035C60.2064 18.8171 58.9047 17.5154 57.3183 17.5154H21.8881C20.3017 17.5154 19 18.8171 19 20.4035ZM41.6574 47.8202C42.2676 47.1694 43.0811 46.8846 44.0167 46.8846C44.993 46.8846 45.8065 47.21 46.376 47.8202C46.9862 48.4304 47.2709 49.366 47.2709 50.5456C47.2709 51.7253 46.9455 52.6202 46.376 53.271C45.7659 53.9218 44.9523 54.2473 44.0167 54.2473C43.5286 54.2473 43.0811 54.1659 42.6744 54.0032C42.2676 53.8405 41.9015 53.5964 41.6168 53.271C41.332 52.9456 41.0879 52.5795 40.9252 52.0914C40.7625 51.6439 40.6812 51.1151 40.6812 50.5456C40.7218 49.366 41.0473 48.4304 41.6574 47.8202ZM42.7675 40.6203C43.5809 40.6203 44.0932 41.4964 43.6943 42.2053L37.4065 53.3799C37.2181 53.7147 36.8638 53.9218 36.4796 53.9218C35.6662 53.9218 35.1539 53.0457 35.5528 52.3368L41.8406 41.1623C42.029 40.8274 42.3833 40.6203 42.7675 40.6203ZM35.2304 47.6982C34.7422 47.6982 34.2948 47.6168 33.888 47.4541C33.4812 47.2914 33.1151 47.0473 32.8304 46.7219C32.5456 46.3965 32.3016 46.0304 32.1389 45.5423C31.9762 45.0948 31.8948 44.566 31.8948 43.9965C31.8948 42.8169 32.2202 41.8813 32.7897 41.2711C33.3999 40.6203 34.2134 40.3355 35.149 40.3355C36.1253 40.3355 36.9388 40.6609 37.5083 41.2711C38.1185 41.8813 38.4032 42.8169 38.4032 43.9965C38.4032 45.1762 38.0778 46.0711 37.5083 46.7219C37.0202 47.3728 36.2066 47.6982 35.2304 47.6982ZM51.894 24.5933C52.9353 24.5933 53.7794 25.4374 53.7794 26.4786V33.1214C53.7794 34.1627 52.9353 35.0068 51.894 35.0068H27.3531C26.3118 35.0068 25.4677 34.1627 25.4677 33.1214V26.4786C25.4677 25.4374 26.3118 24.5933 27.3531 24.5933H51.894Z" fill="#151419"/>
</svg>
